HIERARCHY
ROOT hip
{
	OFFSET	0.00  0.00  0.00 
	CHANNELS 6 Xposition Yposition Zposition Xrotation Zrotation Yrotation
	JOINT abdomen
	{
		OFFSET	0.000000 1.799998 0.000000
		CHANNELS 3 Xrotation Zrotation Yrotation
		JOINT chest
		{
			OFFSET	0.000000 4.464001 -0.360000
			CHANNELS 3 Xrotation Zrotation Yrotation
			JOINT neck
			{
				OFFSET	0.000000 5.400002 -0.144000
				CHANNELS 3 Xrotation Zrotation Yrotation
				JOINT head
				{
					OFFSET	0.000000 1.655998 0.000000
					CHANNELS 3 Xrotation Zrotation Yrotation
					End Site
					{
						OFFSET 0.000000 1.656000 0.000000
					}
				}
			}
			JOINT lCollar
			{
				OFFSET	1.800000 3.528000 -0.432000
				CHANNELS 3 Yrotation Zrotation Xrotation
				JOINT lShldr
				{
					OFFSET	1.728000 0.000000 0.000000
					CHANNELS 3 Zrotation Yrotation Xrotation
					JOINT lForeArm
					{
						OFFSET	5.328000 0.000000 0.000000
						CHANNELS 3 Yrotation Zrotation Xrotation
						JOINT lHand
						{
							OFFSET	4.464000 0.000000 0.000000
							CHANNELS 3 Zrotation Yrotation Xrotation
							End Site
							{
								OFFSET 2.160000 0.000000 0.000000
							}
						}
					}
				}
			}
			JOINT rCollar
			{
				OFFSET	-1.872000 3.528000 -0.432000
				CHANNELS 3 Yrotation Zrotation Xrotation
				JOINT rShldr
				{
					OFFSET	-1.656000 0.000000 0.000000
					CHANNELS 3 Zrotation Yrotation Xrotation
					JOINT rForeArm
					{
						OFFSET	-5.400000 0.000000 0.000000
						CHANNELS 3 Yrotation Zrotation Xrotation
						JOINT rHand
						{
							OFFSET	-4.392000 0.000000 0.000000
							CHANNELS 3 Zrotation Yrotation Xrotation
							End Site
							{
								OFFSET -2.160000 0.000000 0.000000
							}
						}
					}
				}
			}
		}
	}
	JOINT lThigh
	{
		OFFSET	2.808000 -0.864002 0.720000
		CHANNELS 3 Xrotation Zrotation Yrotation
		JOINT lShin
		{
			OFFSET	-1.080000 -10.583999 0.000000
			CHANNELS 3 Xrotation Zrotation Yrotation
			JOINT lFoot
			{
				OFFSET	0.000000 -10.152000 -0.648000
				CHANNELS 3 Xrotation Yrotation Zrotation
				End Site
				{
					OFFSET 0.000000 -1.296000 2.448000
				}
			}
		}
	}
	JOINT rThigh
	{
		OFFSET	-2.808000 -0.864002 0.720000
		CHANNELS 3 Xrotation Zrotation Yrotation
		JOINT rShin
		{
			OFFSET	1.080000 -10.583999 0.000000
			CHANNELS 3 Xrotation Zrotation Yrotation
			JOINT rFoot
			{
				OFFSET	0.000000 -10.152000 -0.648000
				CHANNELS 3 Xrotation Yrotation Zrotation
				End Site
				{
					OFFSET 0.000000 -1.296000 2.448000
				}
			}
		}
	}
}
MOTION
Frames:     21
Frame Time: 0.033333
0.000000 23.151886 0.000000 0.000000 0.000000 0.000000 0.000000 0.000000 0.000000 0.000000 0.000000 0.000000 0.000000 0.000000 0.000000 0.000000 0.000000 0.000000 0.000000 0.000000 0.000000 0.000000 0.000000 0.000000 0.000000 0.000000 0.000000 0.000000 0.000000 0.000000 9.990230 0.000000 0.000000 0.000000 0.000000 0.000000 0.000000 0.000000 0.000000 0.000000 0.000000 0.000000 0.000000 0.000000 0.000000 0.009766 0.000000 0.000000 -0.097656 0.000000 0.000000 -0.009715 -0.068359 -0.000991 0.028032 0.040519 0.007210 0.486727 0.114389 0.093010 
0.000000 23.151886 0.000000 0.000000 0.000000 0.000000 -0.039007 -0.277210 -0.146639 -0.100153 -0.197126 -0.152255 -0.007307 -0.004847 -0.004004 0.000000 0.000000 0.000000 0.000000 0.000000 0.000000 0.000000 0.000000 0.000000 0.000000 0.000000 0.000000 0.000000 0.000000 0.000000 10.180447 -3.520675 -0.521940 -0.003841 2.044563 -14.848300 26.303749 0.470620 3.201475 -0.701860 3.665950 1.653587 0.000000 0.000000 0.000000 0.009766 0.000000 0.000000 -0.097656 0.000000 0.000000 -0.009715 -0.068359 -0.000991 0.028032 0.040519 0.007210 0.486727 0.114389 0.093010 
0.000000 23.151886 0.000000 0.000000 0.000000 0.000000 -0.082349 -0.585221 -0.309571 -0.211435 -0.416155 -0.321426 -0.016065 -0.010657 -0.008805 0.000000 0.000000 0.000000 0.000000 0.000000 0.000000 0.000000 0.000000 0.000000 0.000000 0.000000 0.000000 0.000000 0.000000 0.000000 10.391799 -7.432536 -1.101873 -0.008109 4.316298 -31.346411 55.530132 0.993531 6.758669 -1.481704 7.739228 3.490907 0.000000 0.000000 0.000000 0.009766 0.000000 0.000000 -0.097656 0.000000 0.000000 -0.009715 -0.068359 -0.000991 0.028032 0.040519 0.007210 0.486727 0.114389 0.093010 
0.000000 23.151886 0.000000 0.000000 0.000000 0.000000 -0.122920 -0.873544 -0.462089 -0.315604 -0.621184 -0.479784 -0.025389 -0.016842 -0.013914 0.000000 0.000000 0.000000 0.000000 0.000000 0.000000 0.000000 0.000000 0.000000 0.000000 0.000000 0.000000 0.000000 0.000000 0.000000 10.589642 -11.094349 -1.644737 -0.012104 6.442824 -46.789955 82.888351 1.483018 10.088486 -2.211701 11.552139 5.210783 0.000000 0.000000 0.000000 0.009766 0.000000 0.000000 -0.097656 0.000000 0.000000 -0.009715 -0.068359 -0.000991 0.028032 0.040519 0.007210 0.486727 0.114389 0.093010 
0.000000 23.151886 0.000000 0.000000 0.000000 0.000000 -0.156030 -1.108840 -0.586556 -0.400614 -0.788505 -0.609018 -0.035081 -0.023272 -0.019226 0.000000 0.000000 0.000000 0.000000 0.000000 0.000000 0.000000 0.000000 0.000000 0.000000 0.000000 0.000000 0.000000 0.000000 0.000000 10.751100 -14.082700 -2.087760 -0.015364 8.178250 -59.393200 105.214996 1.882480 12.805900 -2.807440 14.663800 6.614350 0.000000 0.000000 0.000000 0.009766 0.000000 0.000000 -0.097656 0.000000 0.000000 0.000000 -0.068359 0.000000 0.021638 0.043683 -0.002774 0.476564 0.118847 0.084334 
0.000000 23.151886 0.000000 0.000000 0.000000 0.000000 -0.191687 -1.442973 -0.636836 -0.451858 -0.890000 -0.662716 -0.044944 -0.029815 -0.024632 0.000000 0.000000 0.000000 0.000000 0.000000 0.000000 0.000000 0.000000 0.000000 0.000000 0.000000 0.000000 0.000000 0.000000 0.000000 10.705153 -16.208441 -2.080802 -1.339804 8.246640 -59.152035 95.433617 1.551071 12.261138 -2.567912 12.697809 6.527063 0.000000 0.000000 0.000000 0.009766 0.000000 0.000000 -0.097656 0.000000 0.000000 -0.009715 -0.068359 -0.000991 0.028032 0.040519 0.007210 0.486726 0.118960 0.084380 
0.000000 23.151886 0.000000 0.000000 0.000000 0.000000 -0.237017 -1.858363 -0.701707 -0.516557 -1.001540 -0.731989 -0.054783 -0.036342 -0.030024 0.000000 0.000000 0.000000 0.000000 0.000000 0.000000 0.000000 0.000000 0.000000 0.000000 0.000000 0.000000 0.000000 0.000000 0.000000 10.689022 -18.894474 -2.052071 -2.919643 8.324632 -58.837700 83.522751 1.078149 11.558779 -2.339041 10.389216 6.425931 0.000000 0.000000 0.000000 0.009766 0.000000 0.000000 -0.097656 0.000000 0.000000 0.000000 -0.068359 0.000000 0.021638 0.043683 -0.002774 0.476562 0.118847 0.084334 
0.000000 23.151886 0.000000 0.000000 0.000000 0.000000 -0.285039 -2.297793 -0.770495 -0.585069 -1.118533 -0.805443 -0.064401 -0.042723 -0.035295 0.000000 0.000000 0.000000 0.000000 0.000000 0.000000 0.000000 0.000000 0.000000 0.000000 0.000000 0.000000 0.000000 0.000000 0.000000 10.674764 -21.738918 -2.020303 -4.586345 8.406656 -58.504173 70.939644 0.573687 10.814053 -2.101642 7.956298 6.319450 0.000000 0.000000 0.000000 0.009766 0.000000 0.000000 -0.097656 0.000000 0.000000 0.000000 -0.068359 0.000000 0.021638 0.043683 -0.002774 0.476563 0.118841 0.084331 
0.000000 23.151886 0.000000 0.000000 0.000000 0.000000 -0.330272 -2.724470 -0.833993 -0.650209 -1.252519 -0.873260 -0.073601 -0.048826 -0.040337 0.000000 0.000000 0.000000 0.000000 0.000000 0.000000 0.000000 0.000000 0.000000 0.000000 0.000000 0.000000 0.000000 0.000000 0.000000 10.603826 -24.440460 -2.017425 -6.297567 8.496091 -58.200558 58.374535 0.168715 10.125925 -1.775155 5.405243 6.205780 0.000000 0.000000 0.000000 0.009766 0.000000 0.000000 -0.097656 0.000000 0.000000 0.000000 -0.068359 0.000000 0.021638 0.043683 -0.002774 0.476563 0.118841 0.084331 
0.000000 23.151886 0.000000 0.000000 0.000000 0.000000 -0.367234 -3.101603 -0.882995 -0.704790 -1.415038 -0.925623 -0.082187 -0.054521 -0.045043 0.000000 0.000000 0.000000 0.000000 0.000000 0.000000 0.000000 0.000000 0.000000 0.000000 0.000000 0.000000 0.000000 0.000000 0.000000 10.417656 -26.697790 -2.075365 -8.010970 8.596313 -57.975937 46.517647 -0.005741 9.593356 -1.279019 2.742240 6.083074 0.000000 0.000000 0.000000 0.009766 0.000000 0.000000 -0.097656 0.000000 0.000000 -0.009715 -0.068359 -0.000991 0.028032 0.040519 0.007210 0.486720 0.118965 0.084383 
0.000000 23.151886 0.000000 0.000000 0.000000 0.000000 -0.390446 -3.392400 -0.908295 -0.741629 -1.617630 -0.952712 -0.089962 -0.059679 -0.049304 0.000000 0.000000 0.000000 0.000000 0.000000 0.000000 0.000000 0.000000 0.000000 0.000000 0.000000 0.000000 0.000000 0.000000 0.000000 10.057700 -28.209600 -2.226050 -9.684210 8.710700 -57.879398 36.059200 0.181348 9.315310 -0.532674 -0.026523 5.949490 0.000000 0.000000 0.000000 0.009766 0.000000 0.000000 -0.097656 0.000000 0.000000 0.000000 -0.068359 0.000000 0.021638 0.043683 -0.002774 0.476563 0.118841 0.084331 
0.000000 23.151886 0.000000 0.000000 0.000000 0.000000 -0.396996 -3.569928 -0.905799 -0.756915 -1.857594 -0.950146 -0.096770 -0.064196 -0.053035 0.000000 0.000000 0.000000 0.000000 0.000000 0.000000 0.000000 0.000000 0.000000 0.000000 0.000000 0.000000 0.000000 0.000000 0.000000 9.525341 -28.778793 -2.470671 -11.279754 8.841267 -57.944080 27.586166 0.801279 9.353950 0.500963 -2.811864 5.808343 0.000000 0.000000 0.000000 0.009766 0.000000 0.000000 -0.097656 0.000000 0.000000 0.000000 -0.068359 0.000000 0.021638 0.043683 -0.002774 0.476562 0.118847 0.084334 
0.000000 23.151886 0.000000 0.000000 0.000000 0.000000 -0.394254 -3.646697 -0.891864 -0.760338 -2.075266 -0.935286 -0.102624 -0.068079 -0.056243 0.000000 0.000000 0.000000 0.000000 0.000000 0.000000 0.000000 0.000000 0.000000 0.000000 0.000000 0.000000 0.000000 0.000000 0.000000 9.061707 -28.625132 -2.687468 -12.779299 8.984581 -58.139275 21.272484 1.686426 9.624241 1.685062 -5.192628 5.683579 0.000000 0.000000 0.000000 0.009766 0.000000 0.000000 -0.097656 0.000000 0.000000 -0.009715 -0.068359 -0.000991 0.028032 0.040519 0.007210 0.486720 0.118965 0.084383 
0.000000 23.151886 0.000000 0.000000 0.000000 0.000000 -0.392161 -3.645073 -0.887958 -0.764963 -2.196739 -0.930930 -0.107574 -0.071363 -0.058956 0.000000 0.000000 0.000000 0.000000 0.000000 0.000000 0.000000 0.000000 0.000000 0.000000 0.000000 0.000000 0.000000 0.000000 0.000000 8.967861 -28.072590 -2.723944 -14.169351 9.135851 -58.418327 17.188833 2.609431 10.004351 2.839316 -6.664665 5.604306 0.000000 0.000000 0.000000 0.009766 0.000000 0.000000 -0.097656 0.000000 0.000000 -0.009715 -0.068359 -0.000991 0.028032 0.040519 0.007210 0.486709 0.128100 0.067119 
0.000000 23.151886 0.000000 0.000000 0.000000 0.000000 -0.400659 -3.587429 -0.915549 -0.783855 -2.148109 -0.959875 -0.111673 -0.074082 -0.061203 0.000000 0.000000 0.000000 0.000000 0.000000 0.000000 0.000000 0.000000 0.000000 0.000000 0.000000 0.000000 0.000000 0.000000 0.000000 9.544870 -27.445154 -2.427604 -15.436417 9.290285 -58.734592 15.405912 3.342935 10.372448 3.783415 -6.723826 5.599630 0.000000 0.000000 0.000000 0.009766 0.000000 0.000000 -0.097656 0.000000 0.000000 -0.009715 -0.068359 -0.000991 0.028036 0.039896 -0.002536 0.484318 0.130446 0.079372 
0.000000 23.151886 0.000000 0.000000 0.000000 0.000000 -0.429688 -3.496130 -0.996106 -0.830080 -1.855470 -1.044920 -0.114974 -0.076271 -0.063011 0.000000 0.000000 0.000000 0.000000 0.000000 0.000000 0.000000 0.000000 0.000000 0.000000 0.000000 0.000000 0.000000 0.000000 0.000000 11.093800 -27.066799 -1.645950 -16.566999 9.443090 -59.041401 15.994400 3.659580 10.606700 4.337050 -4.865960 5.698660 0.000000 0.000000 0.000000 0.009766 0.000000 0.000000 -0.097656 0.000000 0.000000 -0.009715 -0.068359 -0.000991 0.028036 0.039896 -0.002536 0.484318 0.130449 0.079373 
0.000000 23.151886 0.000000 0.000000 0.000000 0.000000 -0.485339 -3.391626 -1.142043 -0.911526 -1.280052 -1.199261 -0.117527 -0.077965 -0.064411 0.000000 0.000000 0.000000 0.000000 0.000000 0.000000 0.000000 0.000000 0.000000 0.000000 0.000000 0.000000 0.000000 0.000000 0.000000 13.769748 -27.177383 -0.299957 -17.545765 9.588862 -59.299622 18.856424 3.405311 10.618292 4.378173 -0.840488 5.916387 0.000000 0.000000 0.000000 0.009766 0.000000 0.000000 -0.097656 0.000000 0.000000 0.000000 -0.068359 0.000000 0.021638 0.043683 -0.002774 0.476551 0.127982 0.067071 
0.000000 23.151886 0.000000 0.000000 0.000000 0.000000 -0.558303 -3.286690 -1.329560 -1.015379 -0.523633 -1.397699 -0.119385 -0.079198 -0.065429 0.000000 0.000000 0.000000 0.000000 0.000000 0.000000 0.000000 0.000000 0.000000 0.000000 0.000000 0.000000 0.000000 0.000000 0.000000 17.143953 -27.680281 1.395514 -18.350037 9.719761 -59.500256 23.219887 2.719280 10.450504 4.017770 4.588889 6.211344 0.000000 0.000000 0.000000 0.009766 0.000000 0.000000 -0.097656 0.000000 0.000000 -0.009715 -0.068359 -0.000991 0.028032 0.040519 0.007210 0.486732 0.114386 0.093008 
0.000000 23.151886 0.000000 0.000000 0.000000 0.000000 -0.635422 -3.192173 -1.525801 -1.123648 0.276875 -1.605433 -0.120601 -0.080005 -0.066096 0.000000 0.000000 0.000000 0.000000 0.000000 0.000000 0.000000 0.000000 0.000000 0.000000 0.000000 0.000000 0.000000 0.000000 0.000000 20.641689 -28.394739 3.152130 -18.955294 9.827332 -59.641815 28.144123 1.813943 10.179638 3.425087 10.404898 6.527951 0.000000 0.000000 0.000000 0.009766 0.000000 0.000000 -0.097656 0.000000 0.000000 -0.009715 -0.068359 -0.000991 0.028032 0.040519 0.007210 0.486727 0.114389 0.093010 
0.000000 23.151886 0.000000 0.000000 0.000000 0.000000 -0.703538 -3.118928 -1.697912 -1.218342 0.984559 -1.787663 -0.121227 -0.080420 -0.066438 0.000000 0.000000 0.000000 0.000000 0.000000 0.000000 0.000000 0.000000 0.000000 0.000000 0.000000 0.000000 0.000000 0.000000 0.000000 23.688227 -29.140013 4.681560 -19.337019 9.903124 -59.722824 32.688480 0.901754 9.881996 2.769369 15.590268 6.810626 0.000000 0.000000 0.000000 0.009766 0.000000 0.000000 -0.097656 0.000000 0.000000 -0.009715 -0.068359 -0.000991 0.028032 0.040519 0.007210 0.486727 0.114389 0.093010 
0.000000 23.151886 0.000000 0.000000 0.000000 0.000000 -0.749493 -3.077806 -1.813036 -1.281469 1.462505 -1.909589 -0.121313 -0.080477 -0.066486 0.000000 0.000000 0.000000 0.000000 0.000000 0.000000 0.000000 0.000000 0.000000 0.000000 0.000000 0.000000 0.000000 0.000000 0.000000 25.708839 -29.735352 5.695471 -19.470695 9.938684 -59.741814 35.912292 0.195168 9.633881 2.219862 19.127726 7.003786 0.000000 0.000000 0.000000 0.009766 0.000000 0.000000 -0.097656 0.000000 0.000000 -0.009715 -0.068359 -0.000991 0.028032 0.040519 0.007210 0.486727 0.114389 0.093010 
